{"asset":{"version":"2.0","generator":"Blockbench 5.1.4 glTF exporter"},"scenes":[{"nodes":[0],"name":"blockbench_export"}],"scene":0,"nodes":[{"name":"plane","mesh":0}],"bufferViews":[{"buffer":0,"byteOffset":0,"byteLength":96,"target":34962,"byteStride":12},{"buffer":0,"byteOffset":96,"byteLength":96,"target":34962,"byteStride":12},{"buffer":0,"byteOffset":192,"byteLength":64,"target":34962,"byteStride":8},{"buffer":0,"byteOffset":256,"byteLength":24,"target":34963}],"buffers":[{"byteLength":280,"uri":"data:application/octet-stream;base64,"}],"accessors":[{"bufferView":0,"componentType":5126,"count":8,"max":[1032,24,0],"min":[-32,-24,0],"type":"VEC3"},{"bufferView":1,"componentType":5126,"count":8,"max":[0,0,1],"min":[0,0,1],"type":"VEC3"},{"bufferView":2,"componentType":5126,"count":8,"max":[32.25,1],"min":[0,0],"type":"VEC2"},{"bufferView":3,"componentType":5123,"count":12,"max":[7],"min":[0],"type":"SCALAR"}],"materials":[{"pbrMetallicRoughness":{"metallicFactor":0,"roughnessFactor":1},"alphaMode":"MASK","alphaCutoff":0.05,"doubleSided":true}],"meshes":[{"primitives":[{"mode":4,"attributes":{"POSITION":0,"NORMAL":1,"TEXCOORD_0":2},"indices":3,"material":0}]}]}